<svg width="20" height="20" viewBox="0 0 20 20" fill="none" xmlns="http://www.w3.org/2000/svg">
<rect width="20" height="20" rx="2" fill="#FFC700"/>
<g clip-path="url(#clip0_7_242)">
<path d="M6.36049 10.4405C6.05399 11.043 6.40199 11.331 7.19599 11.823C7.87099 12.24 8.80348 12.3925 9.40248 12.4535C9.15698 12.6895 10.282 11.6075 7.04199 14.7241C6.35499 15.3826 7.46099 16.4391 8.14749 15.7946L10.006 14.0021C10.7175 14.6866 11.3995 15.3426 11.8645 15.7971C12.5515 16.4441 13.657 15.3966 12.9775 14.7266C12.9265 14.6781 10.459 12.311 10.6095 12.456C11.216 12.395 12.1345 12.2335 12.8015 11.8255L12.801 11.825C13.595 11.3305 13.943 11.043 13.641 10.4405C13.4585 10.0985 12.9665 9.81254 12.3115 10.307C12.3115 10.307 11.427 10.9845 10.0005 10.9845C8.57349 10.9845 7.68949 10.307 7.68949 10.307C7.03499 9.81004 6.54099 10.0985 6.36049 10.4405Z" fill="white"/>
<path d="M9.99953 10.071C11.7385 10.071 13.1585 8.712 13.1585 7.039C13.1585 5.359 11.7385 4 9.99953 4C8.26003 4 6.84003 5.359 6.84003 7.039C6.84003 8.712 8.26003 10.071 9.99953 10.071ZM9.99953 5.5395C10.854 5.5395 11.551 6.21 11.551 7.039C11.551 7.861 10.854 8.5315 9.99953 8.5315C9.14503 8.5315 8.44803 7.861 8.44803 7.039C8.44753 6.2095 9.14453 5.5395 9.99953 5.5395Z" fill="white"/>
</g>
<defs>
<clipPath id="clip0_7_242">
<rect width="12" height="12" fill="white" transform="translate(4 4)"/>
</clipPath>
</defs>
</svg>
